HIERARCHY
ROOT Hips
{
	OFFSET 0.000000 88.474243 0.000000
	CHANNELS 6 Xposition Yposition Zposition Zrotation Yrotation Xrotation 
	JOINT Hips_Spine
	{
		OFFSET 0.000000 0.000000 0.000000
		CHANNELS 3 Zrotation Yrotation Xrotation
		JOINT Spine
		{
			OFFSET 0.005100 8.711998 -0.691000
			CHANNELS 3 Zrotation Yrotation Xrotation
			JOINT Spine1
			{
				OFFSET -0.009200 8.660301 -1.275000
				CHANNELS 3 Zrotation Yrotation Xrotation
				JOINT Spine2
				{
					OFFSET 0.006300 9.852501 -1.857000
					CHANNELS 3 Zrotation Yrotation Xrotation
					JOINT Spine2_Neck
					{
						OFFSET 0.000000 0.000000 0.000000
						CHANNELS 3 Zrotation Yrotation Xrotation
						JOINT Neck
						{
							OFFSET 0.016300 11.420799 -0.263300
							CHANNELS 3 Zrotation Yrotation Xrotation
							End Site #name: Head
							{
								OFFSET -0.019200 9.262405 2.362500
							}
						}
					}
					JOINT Spine2_LeftShoulder
					{
						OFFSET 0.000000 0.000000 0.000000
						CHANNELS 3 Zrotation Yrotation Xrotation
						JOINT LeftShoulder
						{
							OFFSET 5.616900 6.732201 -0.345700
							CHANNELS 3 Zrotation Yrotation Xrotation
							JOINT LeftArm
							{
								OFFSET 10.664888 -0.183372 -2.440700
								CHANNELS 3 Zrotation Yrotation Xrotation
								JOINT LeftForeArm
								{
									OFFSET 27.459126 0.000000 0.000000
									CHANNELS 3 Zrotation Yrotation Xrotation
									End Site #name: LeftHand
									{
										OFFSET 21.306858 0.000000 0.000000
									}
								}
							}
						}
					}
					JOINT Spine2_RightShoulder
					{
						OFFSET 0.000000 0.000000 0.000000
						CHANNELS 3 Zrotation Yrotation Xrotation
						JOINT RightShoulder
						{
							OFFSET -5.580300 6.737503 -0.344400
							CHANNELS 3 Zrotation Yrotation Xrotation
							JOINT RightArm
							{
								OFFSET -10.679335 -0.188484 -2.383900
								CHANNELS 3 Zrotation Yrotation Xrotation
								JOINT RightForeArm
								{
									OFFSET -27.503529 0.000000 0.000000
									CHANNELS 3 Zrotation Yrotation Xrotation
									End Site #name: RightHand
									{
										OFFSET -21.306808 0.000000 0.000000
									}
								}
							}
						}
					}
				}
			}
		}
	}
	JOINT Hips_LeftUpLeg
	{
		OFFSET 0.000000 0.000000 0.000000
		CHANNELS 3 Zrotation Yrotation Xrotation
		JOINT LeftUpLeg
		{
			OFFSET 6.857700 -6.739601 0.312100
			CHANNELS 3 Zrotation Yrotation Xrotation
			JOINT LeftLeg
			{
				OFFSET -0.367590 -34.731552 -4.572400
				CHANNELS 3 Zrotation Yrotation Xrotation
				End Site #name: LeftFoot
				{
					OFFSET 0.367590 -34.656704 -6.067400
				}
			}
		}
	}
	JOINT Hips_RightUpLeg
	{
		OFFSET 0.000000 0.000000 0.000000
		CHANNELS 3 Zrotation Yrotation Xrotation
		JOINT RightUpLeg
		{
			OFFSET -6.876100 -6.733299 0.301000
			CHANNELS 3 Zrotation Yrotation Xrotation
			JOINT RightLeg
			{
				OFFSET 0.347353 -34.795158 -4.515900
				CHANNELS 3 Zrotation Yrotation Xrotation
				End Site #name: RightFoot
				{
					OFFSET -0.347353 -34.589367 -6.070300
				}
			}
		}
	}
}
MOTION
Frames: 16
Frame Time: 0.041667
2.670771 0.478891 -4.497497 175.772213 2.529791 -178.610692 0.000000 -0.000000 0.000000 -3.590771 -0.770106 4.786330 0.313369 -2.084342 1.759244 0.000000 0.000000 0.000000 0.985404 -2.056093 2.317803 2.451543 -33.021991 -1.741586 0.062766 -1.768090 -0.228350 0.620736 -4.327418 0.128631 -84.188806 -24.080475 13.865057 4.173424 -16.477114 0.753788 0.347227 -2.804396 0.606167 17.230498 17.943296 4.325574 54.618836 12.011251 4.286260 -3.265584 62.204676 1.048644 0.000000 0.000000 0.000000 -3.011042 15.326800 -6.029937 0.625886 -36.712746 -15.274040 0.000000 0.000000 -0.000000 -6.695090 -53.711612 -7.842059 -14.553788 -10.107694 21.044429 
2.711070 0.523525 -4.621869 175.812280 3.061757 -178.611073 0.000000 -0.000000 0.000000 -3.772646 -0.864854 4.937196 0.265524 -2.032778 1.703465 0.000000 0.000000 0.000000 0.931524 -2.034187 2.275117 2.235974 -32.112141 -1.954278 0.025293 -1.734127 -0.229055 0.650285 -4.727771 0.252044 -84.010876 -24.319470 14.053428 4.073715 -17.281896 0.621463 0.306933 -2.758854 0.559253 16.900507 17.947549 4.249053 54.571330 11.920815 4.468410 -3.357244 61.629237 0.981875 0.000000 0.000000 0.000000 -3.027964 15.065767 -6.270440 0.505708 -36.758428 -14.889285 0.000000 0.000000 -0.000000 -6.570556 -53.109595 -7.764903 -14.069017 -9.462290 20.646825 
2.753475 0.570713 -4.742374 175.791582 3.417037 -178.596640 0.000000 -0.000000 0.000000 -3.971309 -0.912924 5.083401 0.212826 -1.970300 1.646682 0.000000 0.000000 0.000000 0.873367 -2.004128 2.222413 1.997934 -31.057228 -2.226927 -0.013337 -1.690512 -0.225668 0.687428 -5.149300 0.362729 -83.791143 -24.537269 14.165860 3.979303 -18.288216 0.419567 0.263571 -2.703422 0.512564 16.557589 17.961408 4.164613 54.554329 11.859222 4.731054 -3.435168 61.120096 0.926305 0.000000 0.000000 0.000000 -3.041304 14.769346 -6.562110 0.359646 -36.752884 -14.450987 0.000000 0.000000 -0.000000 -6.470149 -52.498132 -7.701548 -13.668623 -8.922003 20.263610 
2.800532 0.620196 -4.857381 175.699030 3.673825 -178.578599 0.000000 -0.000000 0.000000 -4.191386 -0.921198 5.220683 0.163089 -1.900206 1.595759 0.000000 0.000000 0.000000 0.821197 -1.964715 2.171070 1.765073 -29.881964 -2.560655 -0.047315 -1.635910 -0.220629 0.711230 -5.551757 0.482343 -83.517476 -24.710699 14.165104 3.912643 -19.567298 0.196959 0.224634 -2.641336 0.464660 16.216764 18.005503 4.138675 54.570861 11.797633 5.072783 -3.517481 60.689144 0.867682 0.000000 0.000000 0.000000 -3.056165 14.452509 -6.921856 0.174085 -36.708080 -13.937648 0.000000 -0.000000 -0.000000 -6.380674 -51.946554 -7.666956 -13.321758 -8.450295 19.914572 
2.853449 0.671196 -4.967869 175.544578 3.866929 -178.551593 0.000000 -0.000000 0.000000 -4.414768 -0.884108 5.375654 0.114638 -1.823317 1.555006 0.000000 0.000000 0.000000 0.778803 -1.920219 2.121597 1.550779 -28.680916 -3.008420 -0.076730 -1.572623 -0.211486 0.724254 -5.942162 0.603771 -83.208754 -24.866814 14.077921 3.876795 -21.072472 -0.036497 0.194952 -2.581830 0.414466 15.886978 18.162578 4.119011 54.573303 11.739607 5.342240 -3.595987 60.437271 0.811147 0.000000 0.000000 0.000000 -3.070978 14.112785 -7.323248 -0.047014 -36.595958 -13.341334 0.000000 -0.000000 -0.000000 -6.317110 -51.471714 -7.630219 -13.006355 -7.991974 19.564068 
2.912890 0.722046 -5.075686 175.339226 3.933236 -178.507694 -0.000000 -0.000000 0.000000 -4.651914 -0.805783 5.549970 0.065888 -1.746071 1.523677 0.000000 0.000000 0.000000 0.736428 -1.874902 2.078509 1.362889 -27.481488 -3.622964 -0.104625 -1.502087 -0.198777 0.721139 -6.332850 0.743754 -82.880483 -24.990221 13.918404 3.874688 -22.744645 -0.281773 0.166656 -2.517587 0.365728 15.588419 18.421853 4.085082 54.573144 11.708471 5.525227 -3.672158 60.483155 0.755239 0.000000 0.000000 -0.000000 -3.096881 13.758592 -7.741304 -0.293911 -36.498999 -12.696324 0.000000 -0.000000 -0.000000 -6.294401 -51.152438 -7.562504 -12.671224 -7.448370 19.218045 
2.979651 0.771083 -5.181916 175.101024 3.857560 -178.446248 -0.000000 -0.000000 0.000000 -4.905126 -0.699885 5.698673 0.013585 -1.672296 1.504485 0.000000 0.000000 0.000000 0.688483 -1.823193 2.023843 1.187701 -26.267622 -4.385638 -0.135869 -1.426590 -0.181268 0.708148 -6.662801 0.863494 -82.576724 -25.099412 13.725413 3.898759 -24.526267 -0.528597 0.135778 -2.451660 0.321606 15.346095 18.762827 4.058770 54.565414 11.705025 5.617410 -3.751076 60.854605 0.693532 0.000000 0.000000 -0.000000 -3.131182 13.395042 -8.158745 -0.563922 -36.452440 -12.019290 0.000000 -0.000000 -0.000000 -6.323860 -51.106862 -7.450517 -12.375885 -6.786648 18.897017 
3.053839 0.817859 -5.287272 174.841031 3.584777 -178.369380 -0.000000 -0.000000 0.000000 -5.202268 -0.580307 5.887810 -0.046079 -1.598305 1.491719 0.000000 0.000000 0.000000 0.639140 -1.769979 1.955374 0.951206 -25.065768 -5.215983 -0.171779 -1.353038 -0.165705 0.744704 -6.775553 0.863060 -82.259914 -25.198651 13.576661 3.980872 -26.397278 -0.759959 0.100027 -2.385841 0.276571 15.164759 19.141064 4.020759 54.543398 11.735794 5.601686 -3.858068 61.611348 0.600731 0.000000 0.000000 -0.000000 -3.185473 13.023057 -8.615178 -0.864309 -36.484631 -11.288429 0.000000 -0.000000 -0.000000 -6.371702 -51.310934 -7.284629 -12.099464 -5.960113 18.581572 
3.136307 0.862940 -5.391763 174.563255 3.155188 -178.279904 -0.000000 -0.000000 0.000000 -5.557011 -0.461326 6.106579 -0.115652 -1.532322 1.491558 0.000000 0.000000 0.000000 0.584315 -1.721437 1.879355 0.553014 -23.899748 -6.064594 -0.212036 -1.284196 -0.153816 0.783972 -6.890767 0.888159 -81.952106 -25.292249 13.408599 4.105845 -28.281735 -0.942123 0.057441 -2.323550 0.228626 15.028267 19.532586 3.981238 54.525355 11.786142 5.511339 -4.013029 62.774729 0.462148 0.000000 0.000000 -0.000000 -3.270915 12.644230 -9.105172 -1.203958 -36.611675 -10.490072 0.000000 -0.000000 -0.000000 -6.440996 -51.828766 -7.057847 -11.852708 -4.974458 18.249620 
3.229216 0.906147 -5.495461 174.285023 2.419808 -178.184073 -0.000000 -0.000000 0.000000 -6.001710 -0.388475 6.369485 -0.194876 -1.477504 1.498770 0.000000 0.000000 0.000000 0.527680 -1.681489 1.807063 0.032934 -22.725299 -6.911300 -0.260471 -1.218694 -0.147023 0.827603 -7.008517 0.913226 -81.659029 -25.372511 13.233921 4.344506 -31.292034 -1.102134 0.006061 -2.264635 0.175875 14.919953 19.923280 3.959375 54.518455 11.832193 5.336187 -4.235973 64.230384 0.263939 0.000000 0.000000 -0.000000 -3.405166 12.249148 -9.609235 -1.593836 -36.813333 -9.596818 0.000000 -0.000000 -0.000000 -6.528344 -52.607168 -6.790045 -11.664906 -3.864892 17.895902 
3.332496 0.948500 -5.599936 173.995202 1.568388 -178.094914 -0.000000 -0.000000 0.000000 -6.521500 -0.356116 6.724569 -0.288160 -1.447600 1.501257 0.000000 0.000000 0.000000 0.463019 -1.644929 1.732707 -0.136002 -21.456266 -7.905531 -0.314573 -1.158027 -0.146307 0.870222 -7.152473 0.941046 -81.337954 -25.472542 13.104381 4.622896 -34.242108 -1.264323 -0.056226 -2.207525 0.118411 14.819235 20.294555 3.956488 54.530673 11.841119 5.143705 -4.523787 65.902755 0.001601 0.000000 0.000000 -0.000000 -3.557752 11.891953 -10.119683 -2.025604 -37.069000 -8.625273 0.000000 -0.000000 -0.000000 -6.606189 -53.553408 -6.510364 -11.400572 -2.500888 17.505534 
3.446578 0.992556 -5.706068 173.755714 0.664516 -178.001366 -0.000000 -0.000000 0.000000 -7.067236 -0.356614 7.066285 -0.393148 -1.433616 1.491809 0.000000 0.000000 0.000000 0.385106 -1.624709 1.669799 -0.191118 -20.010859 -8.975382 -0.373502 -1.109611 -0.141772 0.911514 -7.295500 0.968123 -80.992291 -25.579254 12.973515 4.933908 -36.924790 -1.410946 -0.125403 -2.162279 0.064971 14.719326 20.623067 3.975400 54.629015 11.736672 5.138579 -4.897361 67.783497 -0.354991 0.000000 0.000000 -0.000000 -3.700422 11.585538 -10.624917 -2.532558 -37.345890 -7.555397 0.000000 -0.000000 -0.000000 -6.760263 -54.567301 -6.216263 -10.626556 -1.008861 17.066715 
3.574867 1.039366 -5.813159 173.565356 -0.229619 -177.925763 -0.000000 -0.000000 0.000000 -7.576705 -0.398583 7.320708 -0.490404 -1.438180 1.481310 0.000000 0.000000 0.000000 0.300183 -1.615421 1.613820 -0.192586 -18.436653 -10.070772 -0.435655 -1.068876 -0.138620 0.946582 -7.413663 0.988683 -80.609583 -25.728977 12.894912 5.241782 -39.285450 -1.561190 -0.190366 -2.124758 0.024575 14.614305 20.913374 3.990727 54.749635 11.605364 5.150890 -5.396196 69.813482 -0.842522 0.000000 0.000000 -0.000000 -3.840656 11.411037 -11.021247 -3.126474 -37.551336 -6.451550 0.000000 -0.000000 -0.000000 -6.979957 -55.377000 -6.013650 -9.645714 0.198256 16.798963 
3.716136 1.089253 -5.922813 173.414333 -1.081151 -177.880676 -0.000000 -0.000000 0.000000 -8.099602 -0.524669 7.522968 -0.594256 -1.451797 1.460523 0.000000 0.000000 0.000000 0.212334 -1.613717 1.551965 -0.132742 -16.750977 -11.124464 -0.492169 -1.057625 -0.134794 0.978310 -7.490745 1.000923 -80.172757 -25.885698 12.848213 5.540589 -41.267458 -1.690523 -0.262870 -2.102230 -0.023041 14.501172 21.169253 3.996337 54.910511 11.473231 5.252274 -5.991765 71.779346 -1.439897 0.000000 0.000000 -0.000000 -3.969177 11.403184 -11.244428 -3.716357 -37.788407 -5.423465 0.000000 -0.000000 -0.000000 -7.213684 -55.844894 -5.903899 -8.546351 1.181433 16.595784 
3.868807 1.145609 -6.037846 173.274886 -1.903155 -177.881123 -0.000000 -0.000000 0.000000 -8.554360 -0.520811 7.638518 -0.702199 -1.474330 1.447307 0.000000 0.000000 0.000000 0.114107 -1.613484 1.506570 -0.137016 -14.971673 -12.028500 -0.552273 -1.057757 -0.126894 0.998611 -7.515002 1.004500 -79.702533 -26.016173 12.810041 5.809438 -43.008615 -1.830715 -0.346038 -2.092642 -0.068964 14.399068 21.387409 3.962593 55.079493 11.403003 5.351931 -6.690273 73.615140 -2.148121 0.000000 0.000000 -0.000000 -4.080608 11.563528 -11.354230 -4.229860 -38.093525 -4.554094 0.000000 -0.000000 -0.000000 -7.379836 -55.872410 -5.901923 -7.517885 1.974256 16.334410 
4.031075 1.210068 -6.160096 173.133302 -2.765341 -177.922207 -0.000000 -0.000000 0.000000 -8.983224 -0.567421 7.745122 -0.822798 -1.514812 1.465406 0.000000 0.000000 0.000000 0.002696 -1.620693 1.481555 -0.103932 -13.338533 -12.720726 -0.614764 -1.068295 -0.116423 1.005535 -7.502652 0.996543 -79.208474 -26.137843 12.793714 6.053441 -44.617704 -2.009962 -0.441689 -2.108000 -0.106868 14.318614 21.557216 3.880258 55.272884 11.413048 5.420853 -7.525511 75.383410 -2.998550 0.000000 0.000000 -0.000000 -4.156996 11.796308 -11.330276 -4.622462 -38.362468 -3.938757 0.000000 -0.000000 -0.000000 -7.442054 -55.457360 -6.039049 -6.637917 2.570057 15.961714 
